<?xml version="1.0" encoding="iso-8859-1"?>
<!-- Generator: Adobe Illustrator 26.5.0, SVG Export Plug-In . SVG Version: 6.00 Build 0)  -->
<svg version="1.1" id="Layer_1" xmlns="http://www.w3.org/2000/svg" xmlns:xlink="http://www.w3.org/1999/xlink" x="0px" y="0px"
	 viewBox="0 0 1843.2 1117.992" style="enable-background:new 0 0 1843.2 1117.992;" xml:space="preserve">
<rect style="fill:none;" width="1843.2" height="1117.992"/>
<path id="path193" style="fill:#FFFFFF;" d="M795.55,1117.711c-1.852-0.685-2.301-3.638-1.467-9.636
	c0.713-5.129,6.699-32.042,10.474-47.097c7.488-29.858,26.662-93.21,67.9-224.349c16.244-51.657,22.192-71.008,21.913-71.287
	c-0.334-0.334-25.436,6.041-39.989,10.155c-16.756,4.737-30.373,8.916-47.075,14.447l-14.12,4.676l-11.455,21.161
	c-6.3,11.639-17.408,32.034-24.683,45.322c-27.587,50.386-44.336,82.623-64.492,124.122c-9.971,20.53-10.455,21.165-15.697,20.631
	c-3.806-0.388-5.823-2.506-6.169-6.48c-0.248-2.854-0.015-3.434,3.893-9.626c5.416-8.583,11.818-19.886,30.747-54.283
	c8.547-15.532,25.064-45.184,36.704-65.893c20.254-36.036,36.29-64.834,38.528-69.189l1.049-2.041l-2.37,0.912
	c-1.304,0.502-10.701,3.869-20.883,7.482c-15.373,5.455-32.764,11.905-71.554,26.539l-4.092,1.544l-16.747,41.851
	c-23.888,59.698-65.872,164.113-67.925,168.93c-2.615,6.138-8.409,17.517-10.545,20.709c-2.691,4.021-7.305,8.698-9.872,10.007
	c-5.925,3.02-9.288,2.178-22.592-5.66c-5.35-3.152-17.069-9.551-26.043-14.221c-25.076-13.048-34.96-19.375-44.651-28.577
	c-12.302-11.682-17.795-23.061-17.785-36.842c0.015-17.748,9.166-34.917,29.469-55.282c30.437-30.529,80.103-60.477,153.143-92.346
	c7.076-3.087,13.169-5.942,13.541-6.344c0.372-0.402,5.433-12.027,11.246-25.833c5.813-13.806,13.503-31.738,17.089-39.849
	s6.666-15.171,6.845-15.689c0.53-1.539-2.969,2.651-14.677,17.571c-22.738,28.977-34.194,41.471-41.118,44.838
	c-5.939,2.889-10.458,1.532-13.104-3.934c-3.992-8.247-0.529-30.41,8.23-52.671c2.849-7.24,3.176-9.031,1.218-6.672
	c-1.769,2.132-11.368,9.188-15.253,11.213c-2.234,1.164-5.299,2.302-6.812,2.529c-5.775,0.866-10.956-2.066-13.825-7.823
	l-1.52-3.051l-7.1,11.394c-16.104,25.842-30.445,46.332-38.129,54.478c-6.689,7.09-10.936,8.228-15.559,4.169
	c-5.34-4.689-5.221-16.662,0.397-40.036c6.173-25.682,15.994-52.01,21.059-56.458c4.209-3.695,8.316-3.046,10.39,1.642
	c1.131,2.557,1.143,2.982,0.231,8.204c-1.641,9.399-6.565,26.896-15.621,55.501c-1.93,6.097-4.074,13.157-4.765,15.689l-1.255,4.603
	l4.865-5.02c8.122-8.38,21.37-26.956,36.798-51.595l6.765-10.805l0.224-5.947c0.451-11.992,4.224-25.277,11.24-39.591
	c6.729-13.727,17.173-28.108,22.361-30.791c3.036-1.57,5.861-1.167,7.777,1.111c1.465,1.741,1.641,2.383,1.313,4.781
	c-0.901,6.571-10.652,26.794-24.564,50.942c-4.076,7.076-7.785,13.571-8.242,14.434c-1.006,1.902-1.1,10.013-0.155,13.416
	c2.005,7.221,9.014,7.257,18.733,0.097c6.22-4.582,18.216-18.211,24.047-27.319c3.342-5.22,5.077-6.589,8.348-6.589
	c3.889,0,6.605,2.712,7.013,7.002c0.503,5.296-1.632,11.427-15.451,44.38c-6.109,14.566-11.041,28.398-11.754,32.96l-0.431,2.761
	l2.688-1.506c11.144-6.241,29.015-27.507,57.431-68.34c4.444-6.385,9.333-13.404,10.865-15.596c3.41-4.881,5.911-6.222,9.111-4.885
	c2.635,1.101,4.448,4.607,3.873,7.489c-0.826,4.138-3.2,10.728-11.127,30.877c-4.481,11.39-12.353,31.392-17.493,44.449
	c-5.141,13.057-9.346,23.843-9.346,23.968c0,0.125,2.047-0.627,4.55-1.672c19.593-8.182,90.439-36.02,96.172-37.79
	c1.446-0.446,6.827-10.338,46.135-84.808C901.045,573.261,924.13,531.86,967.791,460.5c15.273-24.963,18.812-29.745,23.051-31.143
	c1.882-0.621,2.588-0.557,4.575,0.414l2.35,1.148l0.395,8.158c0.218,4.487,0.599,9.57,0.847,11.296
	c0.357,2.476-0.087,5.786-2.104,15.7c-7.876,38.72-20.343,82.456-62.139,217.996c-10.047,32.58-18.266,59.65-18.266,60.155
	c0,0.539,0.371,0.776,0.898,0.574c5.588-2.144,50.588-11.983,62.484-13.661c2.934-0.414,5.641-1.063,6.016-1.442
	c0.375-0.379,2.447-5.49,4.605-11.357c4.612-12.542,8.716-21.476,10.651-23.188c1.964-1.738,5.548-1.627,7.041,0.216
	c3.091,3.817,2.73,9.247-1.718,25.796c-1.252,4.659-2.506,9.46-2.786,10.668c-0.591,2.548-8.99,27.516-13.723,40.791
	c-1.784,5.005-2.851,8.676-2.372,8.158c0.48-0.518,3.082-4.612,5.783-9.099c26.997-44.847,49.005-64.529,63.815-57.071
	c6.104,3.074,9.29,8.943,9.29,17.114c0,8.937-3.58,18.244-10.587,27.522c-13.995,18.532-35.786,28.835-63.244,29.904l-4.269,0.166
	l-3.066,5.302c-8.212,14.201-10.613,19.692-23.023,52.655c-19.168,50.913-30.08,78.619-32.3,82.006
	c-1.295,1.976-3.389,2.787-5.023,1.944c-2.817-1.453-2.817-2.484,0-14.579c9.397-40.303,23.641-85.006,48.578-152.449
	c3.819-10.329,6.863-18.862,6.764-18.96c-0.099-0.099-1.578,0.25-3.288,0.775c-6.045,1.856-28.447,7.179-46.908,11.146
	c-10.284,2.209-18.792,4.122-18.908,4.25c-0.199,0.221-5.256,16.848-31.767,104.448c-11.316,37.39-25.07,83.691-34.476,116.055
	c-14.143,48.664-27.491,90.44-39.144,122.513c-1.068,2.94-5.206,11.378-6.129,12.499c-0.854,1.037-2.589,1.368-4.146,0.792
	L795.55,1117.711z M569.772,1063.813c0.532-1.03,3.335-8.866,6.227-17.415c11.975-35.388,21.386-58.655,50.69-125.312
	c17.994-40.93,33.24-76.409,32.957-76.693c-0.124-0.124-7.122,2.696-15.552,6.266c-49.37,20.908-83.32,38.774-113.539,59.748
	c-41.724,28.96-63.82,59.072-60.855,82.932c1.246,10.024,4.759,17.095,12.743,25.649c11.217,12.019,25.404,20.565,65.056,39.188
	C565.24,1066.51,568.014,1067.212,569.772,1063.813L569.772,1063.813z M815.3,777.291c25.672-9.326,49.427-17.253,71.39-23.824
	c6.558-1.962,12.147-3.776,12.419-4.031c0.273-0.255,4.968-15.123,10.433-33.039c5.465-17.917,11.271-36.812,12.902-41.989
	c1.631-5.177,8.14-25.792,14.464-45.811c23.294-73.738,34.363-111.244,42.396-143.649c3.157-12.735,7.48-32.828,7.48-34.768
	c0-3.241-38.881,59.73-62.891,101.857c-18.55,32.547-35.047,62.91-71.091,130.844c-40.159,75.69-48.784,91.913-50.966,95.858
	c-1.193,2.157-1.977,3.922-1.743,3.922C800.328,782.66,807.171,780.244,815.3,777.291z M1002.978,773.961
	c13.645-5.918,25.143-13.776,34.66-23.689c8.361-8.708,13.155-16.73,13.156-22.015c0-3.082-0.494-3.506-4.007-3.436
	c-9.986,0.2-26.497,15.939-44.372,42.296c-3.456,5.097-6.001,9.267-5.655,9.267C997.106,776.384,999.904,775.294,1002.978,773.961
	L1002.978,773.961z M622.525,707.915c2.267-4.524,4.01-8.336,3.873-8.473c-0.279-0.279-6.089,10.714-7.582,14.345
	C616.866,718.53,618.508,715.931,622.525,707.915z M192.979,1070.861c-5.099-2.6-6.32-8.601-3.81-18.727
	c2.599-10.485,11.371-29.443,21.317-46.066c16.257-27.174,47.578-69.641,78.523-106.467c4.396-5.231,8.299-10.084,8.673-10.784
	c0.857-1.601,0.867-7.23,0.03-16.07c-1.259-13.282-4.665-25.552-10.286-37.059c-10.858-22.229-28.459-36.576-70.016-57.071
	c-23.794-11.735-81.498-35.06-142.14-57.455c-31.005-11.451-39.358-14.771-48.949-19.456c-13.766-6.726-20.503-12.242-24.253-19.86
	c-1.931-3.923-2.1-4.738-2.063-9.935c0.033-4.579,0.36-6.479,1.713-9.938c7.151-18.288,31.803-40.65,81.344-73.793
	c95.649-63.987,202.877-112.737,277.429-126.131c24.932-4.479,50.262-4.598,65.265-0.305c17.719,5.07,27.523,18.389,26.044,35.382
	c-1.843,21.167-16.267,56.656-37.237,91.622c-9.981,16.643-28.359,42.845-42.656,60.818c-2.585,3.249-4.304,5.747-3.821,5.55
	c9.275-3.777,24.064-9.388,33.197-12.596c30.837-10.83,77.266-23.829,101.268-28.352c7.303-1.376,13.914-3.105,30.266-7.912
	l1.946-0.572l0.402-7.056c0.584-10.269,1.32-523.122,0.76-529.731l-0.472-5.574l-9.277,0.298c-8.396,0.27-9.418,0.186-10.762-0.88
	c-0.817-0.648-12.64-9.326-26.273-19.284c-13.634-9.958-29.502-21.597-35.264-25.864c-5.762-4.267-11.339-8.239-12.394-8.827
	c-3.302-1.84-2.286-5.085,2.117-6.759c1.305-0.496,20.014-0.694,64.636-0.682c34.54,0.007,111.514-0.255,171.052-0.587
	c167.466-0.934,753.708-0.999,755.417-0.084c3.047,1.631,3.637,6.408,1.149,9.303l-1.513,1.761l-9.368,0.201l-9.368,0.201
	l-0.413,38.394c-0.227,21.117-0.589,157.001-0.803,301.964c-0.289,195.227-0.576,263.978-1.106,265.139
	c-0.88,1.929-2.945,2.321-4.278,0.812c-1.319-1.493-1.426-27.112-1.027-245.556c0.17-93.018,0.214-212.261,0.098-264.983
	l-0.211-95.858h-4.62h-4.621l-0.389,2.353c-0.214,1.294-0.39,17.462-0.391,35.927c0,18.466-0.295,60.26-0.653,92.877
	c-0.358,32.617-0.891,152.563-1.184,266.546c-0.491,190.659-0.616,207.369-1.565,208.817c-1.101,1.68-3.11,2.082-3.946,0.79
	c-0.279-0.431-0.508-136.815-0.508-303.075c0-209.137-0.202-302.492-0.655-302.945c-0.455-0.455-1.573,0.276-3.66,2.395l-3.005,3.05
	l-0.271,50.758c-0.149,27.917-0.572,157.514-0.942,287.993s-0.871,238.214-1.116,239.41c-0.546,2.672-2.603,3.052-3.284,0.606
	c-0.241-0.863-0.463-131.765-0.494-290.893c-0.052-260.315,0.037-289.463,0.915-290.712c0.534-0.764,1.336-1.388,1.781-1.388
	c0.445,0,1.281-0.522,1.859-1.16c1.021-1.128-7.657-1.171-316.658-1.539c-174.74-0.208-374.046-0.689-442.904-1.067
	c-68.858-0.379-134.318-0.603-145.466-0.5l-20.27,0.188l8.975,6.375c4.936,3.506,18.292,13.162,29.68,21.457l20.706,15.082
	l11.613,0.193l11.613,0.193l2.956,1.883l2.957,1.883l0.338,48.008c0.186,26.404,0.622,71.305,0.969,99.78
	c1.198,98.293,1.856,162.408,2.22,216.504c0.201,29.856,0.629,60.637,0.952,68.403c0.323,7.766,0.874,30.499,1.225,50.518
	c0.351,20.019,1.081,42.467,1.624,49.885c1.019,13.94,0.835,18.919-0.83,22.468c-1.675,3.569-3.611,4.151-29.668,8.918
	c-23.811,4.356-30.299,5.885-88.798,20.925c-27.839,7.157-47.092,13.96-68.311,24.135l-9.948,4.771l-9.681,11.295
	c-6.87,8.016-9.551,11.577-9.235,12.266c0.728,1.586,0.459,4.45-0.508,5.417c-3.837,3.837-13.49,0.497-16.272-5.629
	c-1.543-3.398-1.489-5.08,0.285-8.859c2.94-6.263,12.392-13.318,29.197-21.791l9.659-4.87l9.283-11.595
	c11.542-14.417,21.656-27.903,30.266-40.357c20.976-30.34,38.768-66.809,45.25-92.754c6.074-24.31,1.951-35.559-14.737-40.206
	c-6.307-1.757-25.247-1.594-35.923,0.309c-52.062,9.277-139.988,48.315-245.801,109.133c-26.118,15.012-69.488,40.832-87.467,52.073
	c-38.406,24.013-48.665,34.815-42.049,44.275c5.606,8.016,22.379,16.463,61.113,30.776c48.532,17.934,106.105,39.441,114.73,42.86
	c29.199,11.574,59.445,27.094,77.479,39.755c8.508,5.974,20.538,18.247,26.127,26.657c8.107,12.198,14.901,28.049,18.259,42.597
	l1.423,6.166l10.109-10.546c10.841-11.31,23.93-24.191,40.57-39.926l10.379-9.815l1.458-4.576
	c4.66-14.631,14.306-34.822,22.736-47.59c6.658-10.085,15.275-18.906,21.406-21.913c5.621-2.757,12.497-3.444,13.612-1.36
	c0.393,0.734,1.128,1.335,1.634,1.335c0.536,0,0.919,0.591,0.919,1.416c0,2.079,4.041,5.599,5.893,5.134
	c1.314-0.33,1.54-0.03,2.456,3.289c1.521,5.507,1.623,20.325,0.165,24.048c-3.822,9.766-10.466,30.52-11.361,35.496
	c-1.939,10.77-0.675,17.218,3.374,17.218c6.473,0,19.851-13.461,30.988-31.181c6.28-9.992,12.296-21.485,14.06-26.859
	c4.473-13.633,11.354-28.879,14.27-31.618c3.071-2.885,7.627-2.767,10.476,0.273c1.353,1.443,1.525,2.169,1.455,6.132
	c-0.086,4.87-2.142,12.285-12.205,44.031c-6.974,22-10.688,34.343-10.416,34.616c0.351,0.351,9.804-13.142,14.475-20.658
	c9.534-15.342,24.595-42.576,40.688-73.575c8.433-16.244,16.954-30.964,19.522-33.725c1.586-1.706,3.153-1.798,3.757-0.222
	c0.782,2.037-6.889,19.069-17.212,38.215c-7.061,13.095-39.838,71.135-45.612,80.765c-6.613,11.031-13.013,20.309-16.222,23.518
	c-4.32,4.32-8.659,4.526-12.126,0.576c-1.05-1.196-1.921-2.376-1.936-2.623c-0.015-0.247-0.282-1.72-0.594-3.273
	c-0.743-3.701,0.188-14.508,2.177-25.281c0.858-4.644,1.745-8.975,1.973-9.623c0.228-0.649-1.641,1.786-4.152,5.41
	c-14.26,20.582-24.809,30.572-33.001,31.251c-8.865,0.735-13.191-5.815-12.97-19.641c0.059-3.858,0.62-9.326,1.267-12.394
	c0.636-3.02,1.078-5.491,0.981-5.491c-0.096,0-1.928,2.612-4.069,5.805c-14.873,22.174-29.129,38.865-35.766,41.876
	c-3.468,1.574-5.15,1.576-8.381,0.015c-3.982-1.928-5.552-5.217-5.952-12.465l-0.324-5.876l-27.093,27.84
	c-14.901,15.312-27.67,28.578-28.375,29.481c-1.188,1.52-1.301,2.699-1.527,16.003c-0.264,15.489-0.92,20.543-4.212,32.454
	c-9.01,32.598-32.224,70.296-66.531,108.045c-18.674,20.547-34.103,33.739-43.633,37.304c-4.216,1.578-6.812,1.629-9.632,0.191
	V1070.861z M203.218,1055.487c19.003-19.139,51.819-63.746,69.364-94.289c9.136-15.905,14.562-27.543,19.194-41.17
	c2.17-6.386,5.023-18.023,4.537-18.509c-0.611-0.611-25.969,29.671-41.31,49.331c-38.27,49.045-60.187,88.186-60.187,107.487
	C194.817,1063.508,195.475,1063.285,203.218,1055.487L203.218,1055.487z M397.59,816.694c10.192-10.571,19.526-23.329,32.234-44.06
	c3.496-5.704,6.747-10.983,7.225-11.731c0.767-1.203,0.668-1.87-0.858-5.759c-2.61-6.652-2.749-6.674-8.13-1.269
	c-7.349,7.382-14.692,19.063-25.274,40.205c-7.663,15.309-13.514,29.37-12.223,29.37C390.846,823.451,394.008,820.41,397.59,816.694
	L397.59,816.694z M335.271,686.341c2.481-2.928,4.51-5.503,4.51-5.722c0-1.087-8.999,6.655-10.119,8.706
	c-0.604,1.107-0.274,2.34,0.626,2.34C330.548,691.665,332.791,689.27,335.271,686.341L335.271,686.341z M1203.414,905.534
	c-0.414-0.414-0.753-1.502-0.753-2.416c0-1.949,8.381-22.823,17.75-44.211c24.426-55.758,42.516-96.504,54.749-123.313
	c9.248-20.269,9.893-21.739,9.225-21.023c-0.323,0.345-3.926,5.569-8.009,11.61c-38.407,56.822-57.507,77.736-69.023,75.576
	c-4.372-0.82-7.037-4.35-8.449-11.192c-1.719-8.329,1.273-23.874,9.483-49.275c2.072-6.411,3.928-12.979,4.124-14.595l0.356-2.938
	l-4.525-1.374c-2.51-0.762-4.739-1.131-5.005-0.828c-0.265,0.301-1.137,2.382-1.939,4.626
	c-8.039,22.482-28.074,55.121-41.229,67.166c-14.891,13.635-26.741,11.477-30.751-5.601c-1.188-5.057-1.581-22.677-0.629-28.148
	c0.256-1.467,0.249-2.648-0.015-2.624c-0.263,0.022-4.149,4.13-8.636,9.125c-17.962,19.996-32.496,32.902-39.126,34.744
	c-5.38,1.494-10.24-0.155-13.076-4.437c-2.465-3.723-2.814-11.347-0.847-18.531c6.417-23.436,27.016-51.516,44.263-60.336
	c4.594-2.349,11.593-2.645,15.043-0.635c4.634,2.7,7.7,9.618,7.05,15.909l-0.338,3.275l2.356-0.316
	c3.027-0.406,5.958,1.082,7.395,3.755c1.533,2.853,1.32,8.554-0.675,18.031c-4.531,21.528-4.723,34.139-0.562,36.865
	c1.257,0.823,1.874,0.851,4.103,0.183c3.766-1.128,7.124-3.637,12.457-9.306c12.676-13.474,26.796-41.941,30.946-62.388
	c1.377-6.785,1.313-7.161-1.798-10.621c-6.791-7.554-5.978-18.097,1.681-21.805c3.354-1.624,5.643-1.662,8.969-0.151
	c4.795,2.178,7.818,7.825,7.818,14.603v3.004l5.491,1.666c6.827,2.072,9.333,3.337,11.892,6.007c6,6.259,5.3,14.898-2.996,36.988
	c-8.227,21.907-11.236,32.092-11.244,38.059c-0.006,3.114,0.083,3.295,1.596,3.295c5.171,0,15.685-9.412,29.022-25.982
	c18.194-22.604,58.842-84.306,68.873-104.548c2.48-5.005,4.714-9.754,4.963-10.555c0.451-1.447,0.429-1.453-3.838-1.091
	c-3.783,0.321-31.43,1.559-57.006,2.552c-18.586,0.722-80.483,2.198-96.643,2.305c-23.687,0.157-31.732-1.179-32.209-5.347
	c-0.416-3.632,2.657-5.099,15.265-7.291c7.86-1.366,21.896-2.396,68.717-5.04c49.859-2.816,64.271-3.489,102.44-4.785l12.386-0.42
	l6.991-13.561c14.318-27.771,25.152-46.726,28.824-50.429c2.877-2.902,5.83-3.191,8.565-0.839c1.444,1.242,1.761,2.022,1.761,4.339
	c0,2.435-1.972,6.737-14.301,31.198c-7.866,15.605-14.181,28.494-14.034,28.641c0.147,0.147,14.49-0.037,31.873-0.405
	c93.32-1.984,152.324-2.339,213.909-1.285c37.247,0.637,76.097,1.686,81.324,2.194l3.194,0.311l8.043-13.957
	c11.223-19.475,24.665-40.945,27.423-43.803c2.754-2.854,5.753-3.664,8.432-2.278c4.853,2.51,5.665,6.215,2.825,12.888
	c-2.277,5.352-8.831,17.547-18.727,34.849c-3.924,6.861-7.015,12.594-6.869,12.74c0.146,0.146,6.864,0.677,14.929,1.18
	c79.929,4.984,118.977,12.711,131.257,25.974c4.525,4.887,5.969,9.241,4.98,15.014c-1.714,10.005-9.908,20.647-24.304,31.565
	c-19.039,14.438-54.067,32.719-113.586,59.279l-20.082,8.961l-0.388,4.647c-0.957,11.449-10.784,22.465-24.796,27.798
	c-5.774,2.198-14.077,2.76-18.095,1.225c-5.172-1.975-7.229-6.167-5.073-10.336c2.243-4.337,11.886-11.302,25.968-18.756
	c3.566-1.887,6.627-3.807,6.803-4.266c0.458-1.194-0.73-4.539-4.665-13.123c-8.44-18.418-9.971-28.585-6.06-40.261
	c2.72-8.123,8.936-16.78,14.649-20.403c4.754-3.015,10.802-2.093,12.901,1.967c1.665,3.22,1.191,6.155-1.879,11.63
	c-7.549,13.466-9.085,17.396-9.07,23.219c0.015,4.524,0.783,7.491,5.073,19.518l3.829,10.733l20.169-9.449
	c42.944-20.119,83.545-41.08,98.926-51.071c13.957-9.066,24.489-19.132,28.688-27.417c2.216-4.374,2.6-9.991,0.87-12.734
	c-8.046-12.757-53.485-21.638-132.712-25.937c-10.823-0.587-13.239-0.565-13.897,0.129c-0.438,0.462-10.752,18.207-22.919,39.434
	c-12.168,21.227-32.773,57.091-45.79,79.699c-13.017,22.607-31.09,54.095-40.162,69.972c-22.57,39.499-38.14,65.393-41.599,69.187
	c-1.715,1.88-3.918,1.809-5.214-0.17c-0.967-1.476-0.962-1.776,0.078-4.501c2.3-6.023,18.921-38.658,36.214-71.106
	c9.841-18.466,21.921-41.199,26.844-50.518c8.083-15.301,18.468-34.783,25.257-47.38c3.131-5.81,3.192-5.874-7.168,7.531
	c-31.428,40.663-54.164,62.752-64.593,62.754c-2.786,0.001-6.025-2.087-7.707-4.968c-1.614-2.763-2.106-11.121-1.016-17.247
	c1.276-7.175,5.672-20.507,10.348-31.392l1.058-2.462l-3.852,3.337c-6.753,5.85-25.954,26.3-46.653,49.686
	c-5.69,6.429-10.094,10.849-11.453,11.493c-2.08,0.987-2.34,0.982-4.525-0.091c-3.652-1.794-4.44-4.648-3.092-11.198
	c0.584-2.838,2.178-8.645,3.542-12.904s2.401-7.823,2.304-7.919c-0.096-0.096-2.733,2.589-5.859,5.969
	c-10.78,11.654-22.709,20.475-31.652,23.404c-3.436,1.125-5.969,1.506-9.944,1.492c-4.651-0.015-5.872-0.271-9.539-1.992
	c-2.348-1.103-5.485-3.254-7.104-4.873l-2.899-2.899l-7.016,3.453c-8.613,4.239-13.562,5.6-20.572,5.657
	c-4.974,0.037-5.736-0.128-9.719-2.156c-3.462-1.763-4.792-2.886-6.687-5.648c-4.415-6.435-5.101-15.965-2.08-28.913
	c0.51-2.186,0.83-4.073,0.712-4.191c-0.119-0.119-3.534,3.54-7.589,8.131c-28.078,31.787-36.513,37.732-43.728,30.82
	c-2.027-1.942-3.641-6.659-3.641-10.641c0-3.664,2.025-13.651,4.306-21.235c1.036-3.446,1.812-6.338,1.724-6.426
	c-0.088-0.088-8.105,10.391-17.815,23.287c-9.71,12.896-18.536,24.19-19.613,25.096c-2.514,2.116-4.561,2.609-6.864,1.656
	c-1.973-0.818-3.343-2.538-3.963-4.977c-1.977-7.776,21.178-64.565,37.731-92.537c3.446-5.823,7.046-10.097,9.632-11.434
	c3.822-1.976,7.75,0.822,7.575,5.395c-0.19,4.949-5.755,18.257-20.271,48.478c-5.098,10.613-9.171,19.297-9.052,19.297
	c0.359,0,15.164-20.741,25.086-35.143c13.598-19.738,15.105-21.695,17.639-22.897c4.728-2.244,9.589,0.831,10.125,6.403
	c0.382,3.973-1.04,8.12-10.082,29.406c-3.969,9.344-8.108,19.511-9.196,22.592c-2.367,6.7-4.495,14.198-4.132,14.561
	c0.621,0.621,6.681-4.307,12.371-10.062c8.505-8.601,16.275-17.951,27.765-33.413c13.062-17.577,13.758-18.376,16.446-18.88
	c3.273-0.614,5.97,0.405,7.67,2.898c2.233,3.274,1.634,7.477-2.996,21.003c-5.271,15.401-7.565,24.465-7.565,29.892
	c0,5.202,0.634,6.624,3.482,7.814c4.671,1.952,12.262,0.656,20.882-3.564l5.223-2.557l-0.517-2.614
	c-1.027-5.193-0.497-17.295,1.007-23.009c6.859-26.055,27.463-49.639,43.303-49.563c8.732,0.044,14.478,7.988,12.585,17.401
	c-2.521,12.529-20.535,38.99-36.871,54.156l-5.102,4.737l1.487,2.493c2.227,3.735,5.958,5.611,11,5.533
	c8.656-0.135,17.104-5.208,29.516-17.722c13.567-13.68,24.226-28.535,32.486-45.275c8.55-17.329,11.289-20.602,16.64-19.884
	c3.409,0.457,5.502,2.662,5.903,6.22c0.253,2.244-0.151,3.972-2.035,8.703c-2.233,5.604-13.676,31.058-21.274,47.321
	c-3.302,7.068-3.396,7.396-1.527,5.334c1.095-1.208,9.922-10.951,19.615-21.65c22.925-25.307,31.946-34.411,35.121-35.442
	c3.771-1.225,7.121-0.487,9.754,2.147l2.253,2.255l-0.03,6.107c-0.03,7.138-0.483,8.422-9.98,28.385
	c-3.202,6.73-6.588,14.174-7.525,16.542c-1.963,4.962-3.321,10.821-2.661,11.481c0.249,0.249,1.647-0.13,3.106-0.842
	c15.863-7.742,50.627-49.31,93.323-111.587c7.634-11.135,21.781-35.233,21.089-35.925c-0.195-0.195-12.572-0.606-27.503-0.914
	c-60.891-1.253-154.3,1.279-271.265,7.356c-16.912,0.879-31.911,1.741-33.33,1.916c-2.555,0.316-2.604,0.371-5.11,5.784
	c-3.828,8.267-30.258,63.415-45.328,94.578c-14.24,29.448-17.597,36.463-42.489,88.798c-16.099,33.85-30.851,63.394-32.666,65.422
	c-1.135,1.268-3.334,1.439-4.428,0.345L1203.414,905.534z M1648.939,801.508c4.998-1.546,9.66-4.466,14.136-8.853
	c3.226-3.161,6.329-7.847,5.648-8.528c-0.161-0.162-2.088,0.609-4.28,1.712c-14.46,7.279-23.597,13.99-22.177,16.288
	C1642.83,803.037,1644.494,802.883,1648.939,801.508L1648.939,801.508z M1087.258,782.875c5.66-4.167,15.214-13.605,23.693-23.407
	c4.017-4.644,9.342-10.76,11.832-13.592l4.527-5.148l-2.098-4.31c-2.749-5.649-3.584-6.344-5.855-4.878
	c-4.896,3.16-15.339,15.433-23.473,27.586c-4.535,6.776-12.428,21.64-13.413,25.259
	C1081.914,786.434,1082.807,786.152,1087.258,782.875L1087.258,782.875z M1438.284,764.75c7.098-8.955,13.599-20.426,16.979-29.958
	c0.952-2.684,1.555-5.056,1.341-5.271c-0.214-0.214-1.543,0.409-2.952,1.386c-8.495,5.887-19.476,23.169-23.462,36.922
	c-2.37,8.178-2.183,8.93,1.266,5.104C1433.012,771.207,1436.084,767.525,1438.284,764.75L1438.284,764.75z M1331.147,593.611
	c-0.939-0.716-1.061-6.825-1.388-69.815c-0.197-37.967-0.484-120.709-0.638-183.872c-0.153-63.163-0.611-153.476-1.017-200.695
	c-0.52-60.456-0.541-86.051-0.074-86.519c0.365-0.365,0.516-1.581,0.334-2.702c-0.321-1.976-0.156-2.154,5.542-5.968
	c6.138-4.109,8.917-4.932,10.16-3.013c0.549,0.848,0.385,1.491-0.786,3.074c-1.474,1.993-1.478,2.053-1.061,14.303
	c0.231,6.765,0.693,50.283,1.029,96.706c0.335,46.423,0.88,103.891,1.21,127.706c0.33,23.816,0.896,71.399,1.257,105.742
	c1.221,116.144,1.922,170.348,2.306,178.305c0.362,7.507,0.312,7.995-0.949,9.256c-1.669,1.669-3.935,1.707-5.397,0.091
	c-1.059-1.17-1.116-3.816-1.009-46.596c0.059-24.945-0.188-76.701-0.557-115.013c-0.602-62.526-1.226-145.693-2.332-310.782
	l-0.367-54.742l-2.995,1.684l-2.995,1.684l0.269,55.568c0.147,30.562,0.541,87.479,0.873,126.481
	c0.333,39.002,0.895,107.766,1.249,152.808c0.354,45.042,0.991,108.441,1.416,140.885c0.424,32.444,0.732,60.067,0.683,61.384
	c-0.088,2.374-1.617,4.823-3.011,4.823c-0.398,0-1.187-0.353-1.753-0.784L1331.147,593.611z M1052.097,591.975
	c-0.343-0.641-0.651-2.547-0.686-4.236c-0.239-11.772,0.738-378.036,1.018-381.636c0.434-5.568,1.595-7.303,5.056-7.548
	c20.998-1.489,79.909-1.578,115.368-0.174c12.848,0.508,59.743,0.938,65.16,0.596c1.062-0.067,2.284,0.394,3.035,1.146
	c1.253,1.253,1.258,2.001,1.308,195.56c0.052,190.142,0.022,194.331-1.143,195.622l-1.194,1.319l-50.841-0.288
	c-28.123-0.159-62.618-0.725-77.198-1.265c-14.496-0.537-32.719-1.141-40.494-1.342l-14.137-0.365l-0.713,1.889
	c-0.536,1.42-1.11,1.888-2.314,1.888C1053.404,593.14,1052.454,592.642,1052.097,591.975L1052.097,591.975z M1234.41,477.514
	c-0.242-59.452-0.7-128.569-1.02-153.593s-0.586-61.276-0.594-80.561l-0.015-35.064l-30.593,0.391
	c-73.111,0.934-105.157,1.075-121.901,0.534c-9.837-0.318-17.933-0.549-17.993-0.514c-0.818,0.486-3.405,187.965-4.371,316.751
	l-0.422,56.26l4.647,0.362c2.556,0.199,32.604,0.678,66.774,1.065c34.17,0.387,67.917,1.055,74.992,1.484
	c7.076,0.429,16.93,0.825,21.899,0.88l9.034,0.1l-0.439-108.095L1234.41,477.514z M1353.387,557.565
	c-1.365-1.128-1.378-1.342-1.688-26.552c-0.172-13.979-0.432-59.445-0.578-101.035c-0.279-79.373-0.822-159.915-1.315-194.854
	c-0.161-11.39-0.611-60.591-1.001-109.335c-0.655-81.866-0.63-88.792,0.324-90.802c0.568-1.197,1.77-2.756,2.67-3.464
	c2.581-2.03,12.135-6.406,13.523-6.193c1.527,0.234,2.667,3.268,3.287,8.748c0.243,2.151,0.553,28.922,0.688,59.491
	c1.391,315.053,2.334,452.636,3.134,456.994c0.339,1.846,0.164,2.548-0.896,3.608c-2.594,2.594-7.282,0.863-6.955-2.569
	c0.367-3.848,0.348-201.004-0.03-282.591c-0.233-50.737-0.536-124.783-0.675-164.545l-0.25-72.295l-2.197,1.382
	c-1.208,0.76-3.547,2.23-5.198,3.265l-3.001,1.883l0.358,37.967c0.197,20.882,0.631,59.57,0.965,85.974
	c0.334,26.404,0.885,82.178,1.226,123.941c0.34,41.763,0.753,77.204,0.918,78.757c0.164,1.553,0.46,14.826,0.657,29.495
	s0.62,37.261,0.94,50.204c0.776,31.424,0.948,111.635,0.241,112.326c-1.264,1.234-3.781,1.332-5.15,0.201L1353.387,557.565z
	 M928.736,403.582c-36.586-0.279-87.276-0.816-112.645-1.191c-25.369-0.375-58.692-0.679-74.051-0.675
	c-15.359,0.006-36.398-0.282-46.752-0.635c-10.355-0.353-27.581-0.666-38.281-0.695c-14.557-0.037-19.777-0.253-20.739-0.85
	c-1.246-0.773-1.282-1.3-1.201-17.653c0.258-52.269,0.302-248.932,0.059-249.178c-0.16-0.16-0.015-1.088,0.325-2.062
	c1.223-3.509,6.715-3.953,7.94-0.643c0.463,1.252,1.057,1.257,181.5,1.417c192.706,0.171,182.893,0.007,184.545,3.093
	c0.974,1.821,2.047,256.836,1.111,264.301c-0.583,4.646-1.373,5.11-8.878,5.202c-3.526,0.044-36.346-0.15-72.932-0.431
	L928.736,403.582z M1002.236,394.026c0.156-0.156,0.365-166.775,0.279-222.599l-0.044-31.064l-24.226-0.121
	c-155.362-0.776-276.919-1.523-302.777-1.862l-31.746-0.416l-0.418,34.146c-0.23,18.78-0.84,73.258-1.356,121.061
	c-0.516,47.804-1.009,89.936-1.096,93.628l-0.158,6.712l113.586,0.107c62.473,0.059,139.849,0.324,171.948,0.588
	c50.836,0.418,75.47,0.359,76.01-0.182L1002.236,394.026z M1234.666,70.993c-8.712-0.66-494.945-3.853-565.422-3.713
	c-16.395,0.03-30.303-0.132-30.907-0.365c-0.604-0.233-1.098-0.665-1.098-0.96c0-1.628-9.312-7.641-14.034-9.062
	c-2.162-0.651-10.358-0.886-35.648-1.025c-18.062-0.099-33.824-0.335-35.025-0.525c-2.607-0.411-3.974-2.971-2.521-4.722
	c0.763-0.919,4.177-1.007,35.094-0.9c18.837,0.067,35.575-0.088,37.197-0.341c2.863-0.445,3.099-0.354,8.158,3.165
	c2.866,1.993,6.435,4.604,7.932,5.801l2.722,2.177l133.77,0.486c73.573,0.268,208.761,0.581,300.416,0.697l166.646,0.211
	l5.547-4.934c5.408-4.811,5.611-4.925,8.126-4.559c3.18,0.463,26.701,1.059,48.009,1.217c17.348,0.128,17.678,0.201,16.806,3.679
	c-0.698,2.782-2.796,3.182-12.935,2.465c-5.025-0.355-18.694-0.791-30.375-0.969l-21.239-0.323l-3.948,3.281
	c-2.88,2.393-4.061,3.834-4.363,5.326C1246.796,70.937,1244.212,71.716,1234.666,70.993L1234.666,70.993z"/>
</svg>
